<?xml version="1.0" encoding="UTF-8" standalone="no"?><svg xmlns="http://www.w3.org/2000/svg" xmlns:xlink="http://www.w3.org/1999/xlink" contentStyleType="text/css" height="679px" preserveAspectRatio="none" style="width:1478px;height:679px;background:#FFFFFF;" version="1.1" viewBox="0 0 1478 679" width="1478px" zoomAndPan="magnify"><defs/><g><!--MD5=[7d46d6cd919e02e6168a09ad91eae8b4]
entity u--><g id="elem_u"><ellipse cx="927" cy="322" fill="#F1F1F1" rx="8" ry="8" style="stroke:#181818;stroke-width:0.5;"/><path d="M927,330 L927,357 M914,338 L940,338 M927,357 L914,372 M927,357 L940,372 " fill="none" style="stroke:#181818;stroke-width:0.5;"/><text fill="#000000" font-family="sans-serif" font-size="14" lengthAdjust="spacing" textLength="104" x="875" y="386.4951">Пользователь</text></g><g id="elem_UC1"><ellipse cx="926.8533" cy="551.5707" fill="#98FB98" rx="185.8533" ry="39.5707" style="stroke:#008000;stroke-width:0.5;"/><text fill="#000000" font-family="sans-serif" font-size="14" lengthAdjust="spacing" textLength="170" x="841.8533" y="538.1205">получает информацию</text><text fill="#000000" font-family="sans-serif" font-size="14" lengthAdjust="spacing" textLength="256" x="796.8533" y="554.4173">о версии и дате сборки бинарного</text><text fill="#000000" font-family="sans-serif" font-size="14" lengthAdjust="spacing" textLength="112" x="870.8533" y="570.7142">файла клиента</text></g><g id="elem_UC2"><ellipse cx="539.8807" cy="489.3761" fill="#F1F1F1" rx="139.8807" ry="30.3761" style="stroke:#181818;stroke-width:0.5;"/><text fill="#000000" font-family="sans-serif" font-size="14" lengthAdjust="spacing" textLength="207" x="433.3807" y="484.9753">генерирует мнемоническую</text><text fill="#000000" font-family="sans-serif" font-size="14" lengthAdjust="spacing" textLength="45" x="514.3807" y="501.2721">фразу</text></g><g id="elem_UC17"><ellipse cx="539.9752" cy="395.395" fill="#F1F1F1" rx="127.4752" ry="27.895" style="stroke:#181818;stroke-width:0.5;"/><text fill="#000000" font-family="sans-serif" font-size="14" lengthAdjust="spacing" textLength="174" x="449.9752" y="390.9942">вводит мнемоническую</text><text fill="#000000" font-family="sans-serif" font-size="14" lengthAdjust="spacing" textLength="45" x="514.4752" y="407.291">фразу</text></g><g id="elem_UC11"><ellipse cx="146.2951" cy="425.459" fill="#F1F1F1" rx="140.2951" ry="30.459" style="stroke:#181818;stroke-width:0.5;"/><text fill="#000000" font-family="sans-serif" font-size="14" lengthAdjust="spacing" textLength="71" x="110.7951" y="420.1573">проходит</text><text fill="#000000" font-family="sans-serif" font-size="14" lengthAdjust="spacing" textLength="209" x="41.7951" y="436.4541">процедуру аутентификации</text></g><g id="elem_UC3"><ellipse cx="1323.2634" cy="32.2767" fill="#F1F1F1" rx="117.2634" ry="26.2767" style="stroke:#181818;stroke-width:0.5;"/><text fill="#000000" font-family="sans-serif" font-size="14" lengthAdjust="spacing" textLength="148" x="1246.2634" y="27.8758">добавляет в клиент</text><text fill="#000000" font-family="sans-serif" font-size="14" lengthAdjust="spacing" textLength="141" x="1249.7634" y="44.1727">пары логин/пароль</text></g><g id="elem_UC4"><ellipse cx="1323.3711" cy="131.5709" fill="#F1F1F1" rx="149.3711" ry="37.5709" style="stroke:#181818;stroke-width:0.5;"/><text fill="#000000" font-family="sans-serif" font-size="14" lengthAdjust="spacing" textLength="148" x="1249.3711" y="118.1207">добавляет в клиент</text><text fill="#000000" font-family="sans-serif" font-size="14" lengthAdjust="spacing" textLength="191" x="1225.8711" y="134.4176">произвольные текстовые</text><text fill="#000000" font-family="sans-serif" font-size="14" lengthAdjust="spacing" textLength="56" x="1295.3711" y="150.7144">данные</text></g><g id="elem_UC5"><ellipse cx="1323.4214" cy="241.5709" fill="#F1F1F1" rx="144.4214" ry="37.5709" style="stroke:#181818;stroke-width:0.5;"/><text fill="#000000" font-family="sans-serif" font-size="14" lengthAdjust="spacing" textLength="148" x="1249.4214" y="228.1207">добавляет в клиент</text><text fill="#000000" font-family="sans-serif" font-size="14" lengthAdjust="spacing" textLength="184" x="1229.4214" y="244.4176">произвольные бинарные</text><text fill="#000000" font-family="sans-serif" font-size="14" lengthAdjust="spacing" textLength="56" x="1295.4214" y="260.7144">данные</text></g><g id="elem_UC6"><ellipse cx="1323.6829" cy="351.5849" fill="#F1F1F1" rx="116.1829" ry="37.5849" style="stroke:#181818;stroke-width:0.5;"/><text fill="#000000" font-family="sans-serif" font-size="14" lengthAdjust="spacing" textLength="148" x="1247.4049" y="338.8308">добавляет в клиент</text><text fill="#000000" font-family="sans-serif" font-size="14" lengthAdjust="spacing" textLength="143" x="1247.9049" y="355.1277">данные банковских</text><text fill="#000000" font-family="sans-serif" font-size="14" lengthAdjust="spacing" textLength="34" x="1304.4049" y="371.4245">карт</text></g><g id="elem_UC7"><ellipse cx="1323.5513" cy="461.5709" fill="#F1F1F1" rx="117.5513" ry="37.5709" style="stroke:#181818;stroke-width:0.5;"/><text fill="#000000" font-family="sans-serif" font-size="14" lengthAdjust="spacing" textLength="91" x="1278.0513" y="448.1207">добавляет в</text><text fill="#000000" font-family="sans-serif" font-size="14" lengthAdjust="spacing" textLength="146" x="1248.5513" y="464.4176">клиент данные OTP</text><text fill="#000000" font-family="sans-serif" font-size="14" lengthAdjust="spacing" textLength="142" x="1252.5513" y="480.7144">(one time password)</text></g><g id="elem_UC8"><ellipse cx="1323.7168" cy="560.5473" fill="#F1F1F1" rx="94.2168" ry="26.0473" style="stroke:#181818;stroke-width:0.5;"/><text fill="#000000" font-family="sans-serif" font-size="14" lengthAdjust="spacing" textLength="91" x="1278.2168" y="555.2455">добавляет к</text><text fill="#000000" font-family="sans-serif" font-size="14" lengthAdjust="spacing" textLength="117" x="1265.2168" y="571.5424">данным лейблы</text></g><g id="elem_UC9"><ellipse cx="1323.6604" cy="647.5473" fill="#F1F1F1" rx="78.6604" ry="26.0473" style="stroke:#181818;stroke-width:0.5;"/><text fill="#000000" font-family="sans-serif" font-size="14" lengthAdjust="spacing" textLength="91" x="1278.1604" y="642.2455">добавляет к</text><text fill="#000000" font-family="sans-serif" font-size="14" lengthAdjust="spacing" textLength="95" x="1276.1604" y="658.5424">данным теги</text></g><g id="elem_UC10"><ellipse cx="927.1016" cy="450.5473" fill="#F1F1F1" rx="112.6016" ry="26.0473" style="stroke:#181818;stroke-width:0.5;"/><text fill="#000000" font-family="sans-serif" font-size="14" lengthAdjust="spacing" textLength="120" x="867.1016" y="445.2455">синхронизирует</text><text fill="#000000" font-family="sans-serif" font-size="14" lengthAdjust="spacing" textLength="143" x="855.6016" y="461.5424">данные с сервером</text></g><g id="elem_UC12"><ellipse cx="539.9274" cy="306.5904" fill="#F1F1F1" rx="80.9274" ry="26.0904" style="stroke:#181818;stroke-width:0.5;"/><text fill="#000000" font-family="sans-serif" font-size="14" lengthAdjust="spacing" textLength="98" x="487.9274" y="302.1895">запрашивает</text><text fill="#000000" font-family="sans-serif" font-size="14" lengthAdjust="spacing" textLength="56" x="508.9274" y="318.4864">данные</text></g><g id="elem_UC13"><ellipse cx="146.2756" cy="306.5473" fill="#F1F1F1" rx="60.2756" ry="26.0473" style="stroke:#181818;stroke-width:0.5;"/><text fill="#000000" font-family="sans-serif" font-size="14" lengthAdjust="spacing" textLength="69" x="111.7756" y="301.2455">копирует</text><text fill="#000000" font-family="sans-serif" font-size="14" lengthAdjust="spacing" textLength="52" x="120.2756" y="317.5424">пароль</text></g><g id="elem_UC14"><ellipse cx="539.9741" cy="219.5473" fill="#F1F1F1" rx="89.9741" ry="26.0473" style="stroke:#181818;stroke-width:0.5;"/><text fill="#000000" font-family="sans-serif" font-size="14" lengthAdjust="spacing" textLength="77" x="501.4741" y="214.2455">извлекает</text><text fill="#000000" font-family="sans-serif" font-size="14" lengthAdjust="spacing" textLength="111" x="484.4741" y="230.5424">данные в файл</text></g><g id="elem_UC15"><ellipse cx="926.9386" cy="141.5473" fill="#F1F1F1" rx="86.4386" ry="26.0473" style="stroke:#181818;stroke-width:0.5;"/><text fill="#000000" font-family="sans-serif" font-size="14" lengthAdjust="spacing" textLength="92" x="880.9386" y="136.2455">отображает</text><text fill="#000000" font-family="sans-serif" font-size="14" lengthAdjust="spacing" textLength="106" x="873.9386" y="152.5424">список сессий</text></g><g id="elem_UC16"><ellipse cx="927.0807" cy="240.5709" fill="#F1F1F1" rx="100.5807" ry="37.5709" style="stroke:#181818;stroke-width:0.5;"/><text fill="#000000" font-family="sans-serif" font-size="14" lengthAdjust="spacing" textLength="60" x="897.0807" y="227.1207">удаляет</text><text fill="#000000" font-family="sans-serif" font-size="14" lengthAdjust="spacing" textLength="122" x="864.0807" y="243.4176">авторизованную</text><text fill="#000000" font-family="sans-serif" font-size="14" lengthAdjust="spacing" textLength="54" x="900.0807" y="259.7144">сессию</text></g><!--MD5=[029537e5e4461a0df5daea802c84c937]
link u to UC1--><g id="link_u_UC1"><path d="M874.88,351.39 C821.83,354.52 742.93,369.01 710.5,425 C698.92,445 698.92,457 710.5,477 C723.71,499.82 744.61,515.81 768.33,526.98 " fill="none" id="u-to-UC1" style="stroke:#181818;stroke-width:1.0;"/><polygon fill="#181818" points="773.11,529.16,766.5719,521.7943,768.5582,527.091,763.2615,529.0772,773.11,529.16" style="stroke:#181818;stroke-width:1.0;"/></g><!--MD5=[d4dfb423357f333e95523f2f58c1f403]
link u to UC3--><g id="link_u_UC3"><path d="M979.2,349.11 C1020.72,344.44 1077.92,331.37 1113,295.5 C1148.32,259.38 1138.57,112.51 1174,76.5 C1186.41,63.88 1202.25,54.85 1218.95,48.38 " fill="none" id="u-to-UC3" style="stroke:#181818;stroke-width:1.0;"/><polygon fill="#181818" points="1223.67,46.63,1213.8401,46.0185,1218.9837,48.3731,1216.6291,53.5166,1223.67,46.63" style="stroke:#181818;stroke-width:1.0;"/></g><!--MD5=[e2d30219fa55c430fb48f1877f76d979]
link u to UC4--><g id="link_u_UC4"><path d="M979.15,346.5 C1019.26,340.29 1074.56,326.41 1113,295.5 C1156.26,260.71 1131.81,222.59 1174,186.5 C1186.12,176.13 1200.37,167.64 1215.16,160.71 " fill="none" id="u-to-UC4" style="stroke:#181818;stroke-width:1.0;"/><polygon fill="#181818" points="1219.77,158.6,1209.9216,158.6944,1215.2206,160.6744,1213.2406,165.9734,1219.77,158.6" style="stroke:#181818;stroke-width:1.0;"/></g><!--MD5=[4450909595c331656ee543c78c27ecb9]
link u to UC5--><g id="link_u_UC5"><path d="M979.17,337.23 C1039.76,320.34 1142.18,291.78 1219.43,270.24 " fill="none" id="u-to-UC5" style="stroke:#181818;stroke-width:1.0;"/><polygon fill="#181818" points="1224.48,268.83,1214.7362,267.3952,1219.6638,270.1734,1216.8856,275.101,1224.48,268.83" style="stroke:#181818;stroke-width:1.0;"/></g><!--MD5=[a4f60d7cc07bd3bf473b475d83a9ea00]
link u to UC6--><g id="link_u_UC6"><path d="M979.17,351.5 C1035.26,351.5 1127.2,351.5 1201.83,351.5 " fill="none" id="u-to-UC6" style="stroke:#181818;stroke-width:1.0;"/><polygon fill="#181818" points="1207.18,351.5,1198.18,347.5,1202.18,351.5,1198.18,355.5,1207.18,351.5" style="stroke:#181818;stroke-width:1.0;"/></g><!--MD5=[8fd064613625ae3e5b4585df99006133]
link u to UC7--><g id="link_u_UC7"><path d="M979.17,365.77 C1042.41,383.4 1151.23,413.74 1229.42,435.55 " fill="none" id="u-to-UC7" style="stroke:#181818;stroke-width:1.0;"/><polygon fill="#181818" points="1234.52,436.97,1226.9256,430.699,1229.7038,435.6266,1224.7762,438.4048,1234.52,436.97" style="stroke:#181818;stroke-width:1.0;"/></g><!--MD5=[1816bb0a9f9709a07a31ddcf9eaeb0fc]
link u to UC8--><g id="link_u_UC8"><path d="M979.15,356.5 C1019.26,362.71 1074.56,376.59 1113,407.5 C1156.26,442.29 1130.64,481.84 1174,516.5 C1191.67,530.63 1213.77,540.22 1235.47,546.73 " fill="none" id="u-to-UC8" style="stroke:#181818;stroke-width:1.0;"/><polygon fill="#181818" points="1240.39,548.16,1232.8526,541.8207,1235.5862,546.7732,1230.6337,549.5068,1240.39,548.16" style="stroke:#181818;stroke-width:1.0;"/></g><!--MD5=[79fa62fd1f7aab472443f384f12472e5]
link u to UC9--><g id="link_u_UC9"><path d="M979.35,354.2 C1020.68,359.07 1077.53,372.26 1113,407.5 C1145.51,439.8 1141.3,572.39 1174,604.5 C1192.4,622.57 1217.92,633.13 1242.61,639.28 " fill="none" id="u-to-UC9" style="stroke:#181818;stroke-width:1.0;"/><polygon fill="#181818" points="1247.53,640.45,1239.702,634.4732,1242.6661,639.2913,1237.848,642.2554,1247.53,640.45" style="stroke:#181818;stroke-width:1.0;"/></g><!--MD5=[0a9cf63547f383a15e75495ebcb915db]
link u to UC10--><g id="link_u_UC10"><path d="M927,389.56 C927,399.39 927,409.23 927,419.06 " fill="none" id="u-to-UC10" style="stroke:#181818;stroke-width:1.0;"/><polygon fill="#181818" points="927,424.2,931,415.2,927,419.2,923,415.2,927,424.2" style="stroke:#181818;stroke-width:1.0;"/></g><!--MD5=[d971b028a388070ca4cf6029c2f487b9]
reverse link UC2 to u--><g id="link_UC2_u"><path d="M626.03,462.8 C644.08,456.39 662.85,449.17 680,441.5 C708.33,428.83 712.43,419.62 741,407.5 C784.87,388.89 836.99,373.7 874.71,363.85 " fill="none" id="UC2-backto-u" style="stroke:#181818;stroke-width:1.0;"/><polygon fill="#181818" points="620.96,464.58,630.7793,465.3426,625.6726,462.9092,628.106,457.8025,620.96,464.58" style="stroke:#181818;stroke-width:1.0;"/></g><!--MD5=[436109c69a553a5b8bd898846e139adf]
reverse link UC17 to u--><g id="link_UC17_u"><path d="M658.57,382.06 C730.93,373.79 820.03,363.61 874.92,357.34 " fill="none" id="UC17-backto-u" style="stroke:#181818;stroke-width:1.0;"/><polygon fill="#181818" points="653.39,382.66,662.7879,385.6061,658.3573,382.089,661.8744,377.6584,653.39,382.66" style="stroke:#181818;stroke-width:1.0;"/></g><!--MD5=[6fdd7e7f75bb52eef804f4a8ff329c19]
reverse link UC11 to UC17--><g id="link_UC11_UC17"><path d="M284.29,415.02 C328.26,411.65 376.61,407.94 419.26,404.68 " fill="none" id="UC11-backto-UC17" style="stroke:#181818;stroke-width:1.0;stroke-dasharray:7.0,7.0;"/><polygon fill="#181818" points="279.23,415.41,288.5023,418.7303,284.2162,415.0385,287.908,410.7524,279.23,415.41" style="stroke:#181818;stroke-width:1.0;"/><text fill="#000000" font-family="sans-serif" font-size="13" lengthAdjust="spacing" textLength="45" x="321" y="404.5669">include</text></g><!--MD5=[db317689b77fe3735cd51e6f1e5340cc]
reverse link UC11 to UC2--><g id="link_UC11_UC2"><path d="M264.14,444.57 C315.86,453.02 376.43,462.92 427.53,471.28 " fill="none" id="UC11-backto-UC2" style="stroke:#181818;stroke-width:1.0;stroke-dasharray:7.0,7.0;"/><polygon fill="#181818" points="259.16,443.75,267.4053,449.1366,264.0958,444.5489,268.6835,441.2393,259.16,443.75" style="stroke:#181818;stroke-width:1.0;"/><text fill="#000000" font-family="sans-serif" font-size="13" lengthAdjust="spacing" textLength="45" x="321" y="449.5669">include</text></g><!--MD5=[610390686f6d047d7c7ef9a2f4cc2c44]
reverse link UC12 to u--><g id="link_UC12_u"><path d="M621.58,315.92 C697.87,324.84 810.11,337.95 874.85,345.52 " fill="none" id="UC12-backto-u" style="stroke:#181818;stroke-width:1.0;"/><polygon fill="#181818" points="616.6,315.34,625.0844,320.3416,621.5673,315.911,625.9979,312.3939,616.6,315.34" style="stroke:#181818;stroke-width:1.0;"/></g><!--MD5=[89e2fe5ff9d4cd7691e4209e8417cf78]
reverse link UC13 to UC12--><g id="link_UC13_UC12"><path d="M212.59,306.5 C280.18,306.5 386.03,306.5 458.75,306.5 " fill="none" id="UC13-backto-UC12" style="stroke:#181818;stroke-width:1.0;stroke-dasharray:7.0,7.0;"/><polygon fill="#181818" points="207.39,306.5,216.39,310.5,212.39,306.5,216.39,302.5,207.39,306.5" style="stroke:#181818;stroke-width:1.0;"/><text fill="#000000" font-family="sans-serif" font-size="13" lengthAdjust="spacing" textLength="51" x="318" y="302.5669">extends</text></g><!--MD5=[b4805bdd439001762906b88ff2f2e30f]
reverse link UC14 to u--><g id="link_UC14_u"><path d="M611.98,238.53 C634.09,245.24 658.35,253.4 680,262.5 C708.42,274.45 712.55,283.64 741,295.5 C784.98,313.83 837.09,329.06 874.78,338.98 " fill="none" id="UC14-backto-u" style="stroke:#181818;stroke-width:1.0;"/><polygon fill="#181818" points="607,237.04,614.4623,243.4677,611.7872,238.4833,616.7715,235.8082,607,237.04" style="stroke:#181818;stroke-width:1.0;"/></g><!--MD5=[5107f085c0df1693988998423b38cd30]
reverse link UC16 to u--><g id="link_UC16_u"><path d="M927,283.3 C927,293.31 927,303.33 927,313.34 " fill="none" id="UC16-backto-u" style="stroke:#181818;stroke-width:1.0;"/><polygon fill="#181818" points="927,278.06,923,287.06,927,283.06,931,287.06,927,278.06" style="stroke:#181818;stroke-width:1.0;"/></g><!--MD5=[2f6785692e67cd014035c344f16afd64]
reverse link UC15 to u--><g id="link_UC15_u"><path d="M835.47,139.99 C788.13,144.79 735.2,160.34 710.5,203 C693.79,231.85 693.79,249.15 710.5,278 C742.93,333.99 821.83,348.48 874.88,351.61 " fill="none" id="UC15-backto-u" style="stroke:#181818;stroke-width:1.0;"/><polygon fill="#181818" points="840.62,139.51,831.2826,136.3775,835.6423,139.982,832.0378,144.3418,840.62,139.51" style="stroke:#181818;stroke-width:1.0;"/></g><!--MD5=[6d16a47274f8cf13ee7aa50d2cab3b08]
@startuml usecase
left to right direction
actor Пользователь as u
usecase UC1 #palegreen;line:green as "получает информацию 
о версии и дате сборки бинарного 
файла клиента" 
usecase UC2  as "генерирует мнемоническую
фразу"
usecase UC17  as "вводит мнемоническую
фразу"
usecase UC11 as "проходит 
процедуру аутентификации"
usecase UC3  as "добавляет в клиент 
пары логин/пароль"
usecase UC4  as "добавляет в клиент 
произвольные текстовые 
данные"
usecase UC5  as "добавляет в клиент 
произвольные бинарные 
данные"
usecase UC6  as "добавляет в клиент 
данные банковских 
карт"
usecase UC7  as "добавляет в 
клиент данные OTP 
(one time password)"
usecase UC8  as "добавляет к 
данным лейблы"
usecase UC9  as "добавляет к 
данным теги"
usecase UC10 as "синхронизирует 
данные с сервером"
usecase UC12 as "запрашивает 
данные"
usecase UC13 as "копирует 
пароль"
usecase UC14 as "извлекает 
данные в файл"
usecase UC15 as "отображает 
список сессий"
usecase UC16 as "удаляет 
авторизованную 
сессию"
u -right-> UC1
u -down-> UC3
u -down-> UC4
u -down-> UC5
u -down-> UC6
u -down-> UC7
u -down-> UC8
u -down-> UC9
u -right-> UC10
u -up-> (UC2)
u -up-> (UC17)
(UC17) .up-> (UC11) : include
(UC2) .up-> (UC11) : include
u -up-> UC12
(UC12) .up-> (UC13) : extends
u -up-> UC14
u -left-> UC16
u -left-> UC15
@enduml

PlantUML version 1.2022.7(Mon Aug 22 17:01:30 UTC 2022)
(GPL source distribution)
Java Runtime: OpenJDK Runtime Environment
JVM: OpenJDK 64-Bit Server VM
Default Encoding: UTF-8
Language: en
Country: null
--></g></svg>