<?xml version="1.0" encoding="UTF-8" standalone="no"?><svg xmlns="http://www.w3.org/2000/svg" xmlns:xlink="http://www.w3.org/1999/xlink" contentStyleType="text/css" height="679px" preserveAspectRatio="none" style="width:1500px;height:679px;background:#FFFFFF;" version="1.1" viewBox="0 0 1500 679" width="1500px" zoomAndPan="magnify"><defs/><g><!--MD5=[7d46d6cd919e02e6168a09ad91eae8b4]
entity u--><g id="elem_u"><ellipse cx="940" cy="322" fill="#F1F1F1" rx="8" ry="8" style="stroke:#181818;stroke-width:0.5;"/><path d="M940,330 L940,357 M927,338 L953,338 M940,357 L927,372 M940,357 L953,372 " fill="none" style="stroke:#181818;stroke-width:0.5;"/><text fill="#000000" font-family="sans-serif" font-size="14" lengthAdjust="spacing" textLength="107" x="886.5" y="386.4951">Пользователь</text></g><g id="elem_UC1"><ellipse cx="940.0955" cy="551.5191" fill="#98FB98" rx="188.0955" ry="40.0191" style="stroke:#008000;stroke-width:0.5;"/><text fill="#000000" font-family="sans-serif" font-size="14" lengthAdjust="spacing" textLength="173" x="853.5955" y="538.0689">получает информацию</text><text fill="#000000" font-family="sans-serif" font-size="14" lengthAdjust="spacing" textLength="262" x="807.0955" y="554.3658">о версии и дате сборки бинарного</text><text fill="#000000" font-family="sans-serif" font-size="14" lengthAdjust="spacing" textLength="113" x="883.5955" y="570.6626">файла клиента</text></g><g id="elem_UC2"><ellipse cx="548.0154" cy="479.5031" fill="#98FB98" rx="143.0154" ry="31.0031" style="stroke:#008000;stroke-width:0.5;"/><text fill="#000000" font-family="sans-serif" font-size="14" lengthAdjust="spacing" textLength="215" x="437.5154" y="475.1022">генерирует мнемоническую</text><text fill="#000000" font-family="sans-serif" font-size="14" lengthAdjust="spacing" textLength="47" x="521.5154" y="491.3991">фразу</text></g><g id="elem_UC17"><ellipse cx="548.1612" cy="384.3322" fill="#98FB98" rx="129.6612" ry="28.3322" style="stroke:#008000;stroke-width:0.5;"/><text fill="#000000" font-family="sans-serif" font-size="14" lengthAdjust="spacing" textLength="180" x="455.1612" y="379.9314">вводит мнемоническую</text><text fill="#000000" font-family="sans-serif" font-size="14" lengthAdjust="spacing" textLength="47" x="521.6612" y="396.2282">фразу</text></g><g id="elem_UC11"><ellipse cx="148.721" cy="423.4442" fill="#98FB98" rx="142.721" ry="30.9442" style="stroke:#008000;stroke-width:0.5;"/><text fill="#000000" font-family="sans-serif" font-size="14" lengthAdjust="spacing" textLength="73" x="112.221" y="418.1424">проходит</text><text fill="#000000" font-family="sans-serif" font-size="14" lengthAdjust="spacing" textLength="215" x="41.221" y="434.4393">процедуру аутентификации</text></g><g id="elem_UC3"><ellipse cx="1341.7693" cy="32.3539" fill="#98FB98" rx="119.7693" ry="26.3539" style="stroke:#008000;stroke-width:0.5;"/><text fill="#000000" font-family="sans-serif" font-size="14" lengthAdjust="spacing" textLength="152" x="1262.7693" y="27.953">добавляет в клиент</text><text fill="#000000" font-family="sans-serif" font-size="14" lengthAdjust="spacing" textLength="145" x="1266.2693" y="44.2499">пары логин/пароль</text></g><g id="elem_UC4"><ellipse cx="1341.9066" cy="131.5709" fill="#98FB98" rx="152.9066" ry="37.5709" style="stroke:#008000;stroke-width:0.5;"/><text fill="#000000" font-family="sans-serif" font-size="14" lengthAdjust="spacing" textLength="152" x="1265.9066" y="118.1207">добавляет в клиент</text><text fill="#000000" font-family="sans-serif" font-size="14" lengthAdjust="spacing" textLength="196" x="1241.9066" y="134.4176">произвольные текстовые</text><text fill="#000000" font-family="sans-serif" font-size="14" lengthAdjust="spacing" textLength="56" x="1313.9066" y="150.7144">данные</text></g><g id="elem_UC5"><ellipse cx="1342.2498" cy="241.5709" fill="#98FB98" rx="147.2498" ry="37.5709" style="stroke:#008000;stroke-width:0.5;"/><text fill="#000000" font-family="sans-serif" font-size="14" lengthAdjust="spacing" textLength="152" x="1266.2498" y="228.1207">добавляет в клиент</text><text fill="#000000" font-family="sans-serif" font-size="14" lengthAdjust="spacing" textLength="188" x="1246.2498" y="244.4176">произвольные бинарные</text><text fill="#000000" font-family="sans-serif" font-size="14" lengthAdjust="spacing" textLength="56" x="1314.2498" y="260.7144">данные</text></g><g id="elem_UC6"><ellipse cx="1342.0592" cy="351.5988" fill="#98FB98" rx="119.0592" ry="37.5988" style="stroke:#008000;stroke-width:0.5;"/><text fill="#000000" font-family="sans-serif" font-size="14" lengthAdjust="spacing" textLength="152" x="1263.0592" y="339.0495">добавляет в клиент</text><text fill="#000000" font-family="sans-serif" font-size="14" lengthAdjust="spacing" textLength="147" x="1263.5592" y="355.3464">данные банковских</text><text fill="#000000" font-family="sans-serif" font-size="14" lengthAdjust="spacing" textLength="36" x="1321.0592" y="371.6432">карт</text></g><g id="elem_UC7"><ellipse cx="1341.7584" cy="461.5709" fill="#F1F1F1" rx="118.2584" ry="37.5709" style="stroke:#181818;stroke-width:0.5;"/><text fill="#000000" font-family="sans-serif" font-size="14" lengthAdjust="spacing" textLength="94" x="1294.7584" y="448.1207">добавляет в</text><text fill="#000000" font-family="sans-serif" font-size="14" lengthAdjust="spacing" textLength="147" x="1266.2584" y="464.4176">клиент данные OTP</text><text fill="#000000" font-family="sans-serif" font-size="14" lengthAdjust="spacing" textLength="146" x="1268.7584" y="480.7144">(one time password)</text></g><g id="elem_UC8"><ellipse cx="1341.9239" cy="560.5473" fill="#F1F1F1" rx="94.9239" ry="26.0473" style="stroke:#181818;stroke-width:0.5;"/><text fill="#000000" font-family="sans-serif" font-size="14" lengthAdjust="spacing" textLength="94" x="1294.9239" y="555.2455">добавляет к</text><text fill="#000000" font-family="sans-serif" font-size="14" lengthAdjust="spacing" textLength="118" x="1282.9239" y="571.5424">данным лейблы</text></g><g id="elem_UC9"><ellipse cx="1342.0746" cy="647.5473" fill="#F1F1F1" rx="80.0746" ry="26.0473" style="stroke:#181818;stroke-width:0.5;"/><text fill="#000000" font-family="sans-serif" font-size="14" lengthAdjust="spacing" textLength="94" x="1295.0746" y="642.2455">добавляет к</text><text fill="#000000" font-family="sans-serif" font-size="14" lengthAdjust="spacing" textLength="97" x="1293.5746" y="658.5424">данным теги</text></g><g id="elem_UC10"><ellipse cx="939.93" cy="450.5473" fill="#98FB98" rx="115.43" ry="26.0473" style="stroke:#008000;stroke-width:0.5;"/><text fill="#000000" font-family="sans-serif" font-size="14" lengthAdjust="spacing" textLength="124" x="877.93" y="445.2455">синхронизирует</text><text fill="#000000" font-family="sans-serif" font-size="14" lengthAdjust="spacing" textLength="147" x="866.43" y="461.5424">данные с сервером</text></g><g id="elem_UC12"><ellipse cx="548.1541" cy="294.5958" fill="#98FB98" rx="81.6541" ry="26.0958" style="stroke:#008000;stroke-width:0.5;"/><text fill="#000000" font-family="sans-serif" font-size="14" lengthAdjust="spacing" textLength="99" x="495.6541" y="290.1949">запрашивает</text><text fill="#000000" font-family="sans-serif" font-size="14" lengthAdjust="spacing" textLength="56" x="517.1541" y="306.4918">данные</text></g><g id="elem_UC13"><ellipse cx="148.397" cy="294.5473" fill="#F1F1F1" rx="62.397" ry="26.0473" style="stroke:#181818;stroke-width:0.5;"/><text fill="#000000" font-family="sans-serif" font-size="14" lengthAdjust="spacing" textLength="72" x="112.397" y="289.2455">копирует</text><text fill="#000000" font-family="sans-serif" font-size="14" lengthAdjust="spacing" textLength="54" x="121.397" y="305.5424">пароль</text></g><g id="elem_UC14"><ellipse cx="548.1812" cy="207.5473" fill="#98FB98" rx="90.6812" ry="26.0473" style="stroke:#008000;stroke-width:0.5;"/><text fill="#000000" font-family="sans-serif" font-size="14" lengthAdjust="spacing" textLength="79" x="508.6812" y="202.2455">извлекает</text><text fill="#000000" font-family="sans-serif" font-size="14" lengthAdjust="spacing" textLength="112" x="492.1812" y="218.5424">данные в файл</text></g><g id="elem_UC15"><ellipse cx="940.1457" cy="141.5473" fill="#F1F1F1" rx="87.1457" ry="26.0473" style="stroke:#181818;stroke-width:0.5;"/><text fill="#000000" font-family="sans-serif" font-size="14" lengthAdjust="spacing" textLength="93" x="893.6457" y="136.2455">отображает</text><text fill="#000000" font-family="sans-serif" font-size="14" lengthAdjust="spacing" textLength="107" x="886.6457" y="152.5424">список сессий</text></g><g id="elem_UC16"><ellipse cx="939.9092" cy="240.5709" fill="#F1F1F1" rx="103.4092" ry="37.5709" style="stroke:#181818;stroke-width:0.5;"/><text fill="#000000" font-family="sans-serif" font-size="14" lengthAdjust="spacing" textLength="62" x="908.9092" y="227.1207">удаляет</text><text fill="#000000" font-family="sans-serif" font-size="14" lengthAdjust="spacing" textLength="126" x="874.9092" y="243.4176">авторизованную</text><text fill="#000000" font-family="sans-serif" font-size="14" lengthAdjust="spacing" textLength="54" x="912.9092" y="259.7144">сессию</text></g><!--MD5=[029537e5e4461a0df5daea802c84c937]
link u to UC1--><g id="link_u_UC1"><path d="M886.399,351.258 C832.861,354.363 753.994,368.893 721.5,425 C709.918,444.999 709.918,457.001 721.5,477 C734.681,499.76 755.463,515.747 779.083,526.937 " fill="none" id="u-to-UC1" style="stroke:#181818;stroke-width:1.0;"/><polygon fill="#181818" points="783.843,529.112,777.3187,521.7341,779.295,527.0345,773.9947,529.0108,783.843,529.112" style="stroke:#181818;stroke-width:1.0;"/></g><!--MD5=[d4dfb423357f333e95523f2f58c1f403]
link u to UC3--><g id="link_u_UC3"><path d="M993.588,349.175 C1035.48,344.517 1092.76,331.428 1128,295.5 C1163.38,259.434 1153.46,112.403 1189,76.5 C1201.63,63.74 1217.72,54.628 1234.68,48.132 " fill="none" id="u-to-UC3" style="stroke:#181818;stroke-width:1.0;"/><polygon fill="#181818" points="1239.48,46.368,1229.6521,45.7253,1234.7882,48.0962,1232.4172,53.2322,1239.48,46.368" style="stroke:#181818;stroke-width:1.0;"/></g><!--MD5=[e2d30219fa55c430fb48f1877f76d979]
link u to UC4--><g id="link_u_UC4"><path d="M993.524,346.51 C1034,340.311 1089.4,326.449 1128,295.5 C1171.31,260.775 1146.68,222.428 1189,186.5 C1201.31,176.048 1215.77,167.516 1230.78,160.569 " fill="none" id="u-to-UC4" style="stroke:#181818;stroke-width:1.0;"/><polygon fill="#181818" points="1235.46,158.463,1225.6113,158.519,1230.9026,160.5196,1228.9019,165.8109,1235.46,158.463" style="stroke:#181818;stroke-width:1.0;"/></g><!--MD5=[4450909595c331656ee543c78c27ecb9]
link u to UC5--><g id="link_u_UC5"><path d="M993.704,337.006 C1055.15,320.109 1158.22,291.765 1236.15,270.333 " fill="none" id="u-to-UC5" style="stroke:#181818;stroke-width:1.0;"/><polygon fill="#181818" points="1241.25,268.932,1231.5108,267.4666,1236.4297,270.2603,1233.636,275.1792,1241.25,268.932" style="stroke:#181818;stroke-width:1.0;"/></g><!--MD5=[a4f60d7cc07bd3bf473b475d83a9ea00]
link u to UC6--><g id="link_u_UC6"><path d="M993.704,351.5 C1050.37,351.5 1142.42,351.5 1217.52,351.5 " fill="none" id="u-to-UC6" style="stroke:#181818;stroke-width:1.0;"/><polygon fill="#181818" points="1222.9,351.5,1213.9,347.5,1217.9,351.5,1213.9,355.5,1222.9,351.5" style="stroke:#181818;stroke-width:1.0;"/></g><!--MD5=[8fd064613625ae3e5b4585df99006133]
link u to UC7--><g id="link_u_UC7"><path d="M993.704,365.994 C1057.95,383.662 1167.71,413.844 1246.65,435.554 " fill="none" id="u-to-UC7" style="stroke:#181818;stroke-width:1.0;"/><polygon fill="#181818" points="1251.81,436.972,1244.1965,430.7243,1246.9898,435.6434,1242.0707,438.4366,1251.81,436.972" style="stroke:#181818;stroke-width:1.0;"/></g><!--MD5=[1816bb0a9f9709a07a31ddcf9eaeb0fc]
link u to UC8--><g id="link_u_UC8"><path d="M993.524,356.49 C1034,362.689 1089.4,376.551 1128,407.5 C1171.31,442.225 1145.53,481.975 1189,516.5 C1207.2,530.954 1229.97,540.661 1252.31,547.178 " fill="none" id="u-to-UC8" style="stroke:#181818;stroke-width:1.0;"/><polygon fill="#181818" points="1257.36,548.603,1249.7661,542.3314,1252.5439,547.2593,1247.6161,550.0371,1257.36,548.603" style="stroke:#181818;stroke-width:1.0;"/></g><!--MD5=[79fa62fd1f7aab472443f384f12472e5]
link u to UC9--><g id="link_u_UC9"><path d="M993.74,354.143 C1035.44,358.998 1092.37,372.199 1128,407.5 C1160.56,439.754 1156.2,572.495 1189,604.5 C1207.86,622.904 1233.98,633.5503 1259.25,639.6696 " fill="none" id="u-to-UC9" style="stroke:#181818;stroke-width:1.0;"/><polygon fill="#181818" points="1264.29,640.834,1256.425,634.906,1259.419,639.7056,1254.6195,642.6996,1264.29,640.834" style="stroke:#181818;stroke-width:1.0;"/></g><!--MD5=[0a9cf63547f383a15e75495ebcb915db]
link u to UC10--><g id="link_u_UC10"><path d="M940,389.556 C940,399.39 940,409.225 940,419.06 " fill="none" id="u-to-UC10" style="stroke:#181818;stroke-width:1.0;"/><polygon fill="#181818" points="940,424.203,944,415.203,940,419.203,936,415.203,940,424.203" style="stroke:#181818;stroke-width:1.0;"/></g><!--MD5=[d971b028a388070ca4cf6029c2f487b9]
reverse link UC2 to u--><g id="link_UC2_u"><path d="M630.525,451.811 C650.353,444.954 671.47,437.55 691,430.5 C718.253,420.662 724.55,416.773 752,407.5 C796.95,392.316 848.663,376.991 886.298,366.221 " fill="none" id="UC2-backto-u" style="stroke:#181818;stroke-width:1.0;"/><polygon fill="#181818" points="625.783,453.448,635.5958,454.2895,630.5088,451.8151,632.9832,446.7281,625.783,453.448" style="stroke:#181818;stroke-width:1.0;"/></g><!--MD5=[436109c69a553a5b8bd898846e139adf]
reverse link UC17 to u--><g id="link_UC17_u"><path d="M674.336,373.895 C746.092,367.823 832.338,360.525 886.427,355.949 " fill="none" id="UC17-backto-u" style="stroke:#181818;stroke-width:1.0;"/><polygon fill="#181818" points="669.195,374.33,678.5001,377.5573,674.1772,373.9086,677.8259,369.5858,669.195,374.33" style="stroke:#181818;stroke-width:1.0;"/></g><!--MD5=[6fdd7e7f75bb52eef804f4a8ff329c19]
reverse link UC11 to UC17--><g id="link_UC11_UC17"><path d="M283.969,410.307 C331.174,405.675 383.8,400.512 429.502,396.028 " fill="none" id="UC11-backto-UC17" style="stroke:#181818;stroke-width:1.0;stroke-dasharray:7.0,7.0;"/><polygon fill="#181818" points="278.832,410.811,288.1798,413.9124,283.8081,410.3224,287.398,405.9507,278.832,410.811" style="stroke:#181818;stroke-width:1.0;"/><text fill="#000000" font-family="sans-serif" font-size="13" lengthAdjust="spacing" textLength="45" x="325.5" y="397.5669">include</text></g><!--MD5=[db317689b77fe3735cd51e6f1e5340cc]
reverse link UC11 to UC2--><g id="link_UC11_UC2"><path d="M273.533,440.974 C322.689,447.899 378.983,455.83 427.667,462.688 " fill="none" id="UC11-backto-UC2" style="stroke:#181818;stroke-width:1.0;stroke-dasharray:7.0,7.0;"/><polygon fill="#181818" points="268.494,440.264,276.8482,445.4801,273.4451,440.9613,277.9639,437.5582,268.494,440.264" style="stroke:#181818;stroke-width:1.0;"/><text fill="#000000" font-family="sans-serif" font-size="13" lengthAdjust="spacing" textLength="45" x="325.5" y="443.5669">include</text></g><!--MD5=[610390686f6d047d7c7ef9a2f4cc2c44]
reverse link UC12 to u--><g id="link_UC12_u"><path d="M627.37,305.954 C704.339,317.203 819.633,334.054 886.278,343.794 " fill="none" id="UC12-backto-u" style="stroke:#181818;stroke-width:1.0;"/><polygon fill="#181818" points="622.356,305.221,630.6816,310.4826,627.3033,305.9453,631.8405,302.5669,622.356,305.221" style="stroke:#181818;stroke-width:1.0;"/></g><!--MD5=[89e2fe5ff9d4cd7691e4209e8417cf78]
reverse link UC13 to UC12--><g id="link_UC13_UC12"><path d="M216.478,294.5 C285.371,294.5 392.711,294.5 466.255,294.5 " fill="none" id="UC13-backto-UC12" style="stroke:#181818;stroke-width:1.0;stroke-dasharray:7.0,7.0;"/><polygon fill="#181818" points="211.173,294.5,220.173,298.5,216.173,294.5,220.173,290.5,211.173,294.5" style="stroke:#181818;stroke-width:1.0;"/><text fill="#000000" font-family="sans-serif" font-size="13" lengthAdjust="spacing" textLength="52" x="322" y="290.5669">extends</text></g><!--MD5=[b4805bdd439001762906b88ff2f2e30f]
reverse link UC14 to u--><g id="link_UC14_u"><path d="M623.315,225.582 C645.662,232.319 669.85,240.951 691,251.5 C720.913,266.421 722.016,280.722 752,295.5 C795.165,316.775 847.98,331.678 886.458,340.732 " fill="none" id="UC14-backto-u" style="stroke:#181818;stroke-width:1.0;"/><polygon fill="#181818" points="618.278,224.086,625.7675,230.4819,623.0712,225.509,628.0442,222.8128,618.278,224.086" style="stroke:#181818;stroke-width:1.0;"/></g><!--MD5=[5107f085c0df1693988998423b38cd30]
reverse link UC16 to u--><g id="link_UC16_u"><path d="M940,283.297 C940,293.313 940,303.328 940,313.344 " fill="none" id="UC16-backto-u" style="stroke:#181818;stroke-width:1.0;"/><polygon fill="#181818" points="940,278.06,936,287.06,940,283.06,944,287.06,940,278.06" style="stroke:#181818;stroke-width:1.0;"/></g><!--MD5=[2f6785692e67cd014035c344f16afd64]
reverse link UC15 to u--><g id="link_UC15_u"><path d="M847.889,139.685 C800.039,144.365 746.463,159.897 721.5,203 C704.795,231.845 704.795,249.155 721.5,278 C753.994,334.107 832.861,348.637 886.399,351.742 " fill="none" id="UC15-backto-u" style="stroke:#181818;stroke-width:1.0;"/><polygon fill="#181818" points="853.095,139.216,843.7724,136.0395,848.1152,139.6646,844.4901,144.0073,853.095,139.216" style="stroke:#181818;stroke-width:1.0;"/></g><!--MD5=[bc7a9340de29d9cf0da8429923a5ca5a]
@startuml
left to right direction
actor Пользователь as u
usecase UC1 #palegreen;line:green as "получает информацию 
о версии и дате сборки бинарного 
файла клиента" 
usecase UC2 #palegreen;line:green as "генерирует мнемоническую
фразу"
usecase UC17  #palegreen;line:green as "вводит мнемоническую
фразу"
usecase UC11 #palegreen;line:green as "проходит 
процедуру аутентификации"
usecase UC3 #palegreen;line:green as "добавляет в клиент 
пары логин/пароль"
usecase UC4  #palegreen;line:green as "добавляет в клиент 
произвольные текстовые 
данные"
usecase UC5 #palegreen;line:green as "добавляет в клиент 
произвольные бинарные 
данные"
usecase UC6 #palegreen;line:green as "добавляет в клиент 
данные банковских 
карт"
usecase UC7  as "добавляет в 
клиент данные OTP 
(one time password)"
usecase UC8  as "добавляет к 
данным лейблы"
usecase UC9  as "добавляет к 
данным теги"
usecase UC10 #palegreen;line:green as "синхронизирует 
данные с сервером"
usecase UC12 #palegreen;line:green as "запрашивает 
данные"
usecase UC13 as "копирует 
пароль"
usecase UC14 #palegreen;line:green as "извлекает 
данные в файл"
usecase UC15 as "отображает 
список сессий"
usecase UC16 as "удаляет 
авторизованную 
сессию"
u -right-> UC1
u -down-> UC3
u -down-> UC4
u -down-> UC5
u -down-> UC6
u -down-> UC7
u -down-> UC8
u -down-> UC9
u -right-> UC10
u -up-> (UC2)
u -up-> (UC17)
(UC17) .up-> (UC11) : include
(UC2) .up-> (UC11) : include
u -up-> UC12
(UC12) .up-> (UC13) : extends
u -up-> UC14
u -left-> UC16
u -left-> UC15
@enduml

PlantUML version 1.2022.14beta4(Unknown compile time)
(GPL source distribution)
Java Runtime: Java(TM) SE Runtime Environment
JVM: Java HotSpot(TM) 64-Bit Server VM
Default Encoding: UTF-8
Language: en
Country: US
--></g></svg>