<?xml version="1.0" encoding="UTF-8" standalone="no"?><svg xmlns="http://www.w3.org/2000/svg" xmlns:xlink="http://www.w3.org/1999/xlink" contentStyleType="text/css" height="698px" preserveAspectRatio="none" style="width:1027px;height:698px;background:#FFFFFF;" version="1.1" viewBox="0 0 1027 698" width="1027px" zoomAndPan="magnify"><defs/><g><!--MD5=[7d46d6cd919e02e6168a09ad91eae8b4]
entity u--><g id="elem_u"><ellipse cx="477" cy="322" fill="#F1F1F1" rx="8" ry="8" style="stroke:#181818;stroke-width:0.5;"/><path d="M477,330 L477,357 M464,338 L490,338 M477,357 L464,372 M477,357 L490,372 " fill="none" style="stroke:#181818;stroke-width:0.5;"/><text fill="#000000" font-family="sans-serif" font-size="14" lengthAdjust="spacing" textLength="104" x="425" y="386.4951">Пользователь</text></g><g id="elem_UC1"><ellipse cx="476.8533" cy="652.5707" fill="#98FB98" rx="185.8533" ry="39.5707" style="stroke:#008000;stroke-width:0.5;"/><text fill="#000000" font-family="sans-serif" font-size="14" lengthAdjust="spacing" textLength="170" x="391.8533" y="639.1205">получает информацию</text><text fill="#000000" font-family="sans-serif" font-size="14" lengthAdjust="spacing" textLength="256" x="346.8533" y="655.4173">о версии и дате сборки бинарного</text><text fill="#000000" font-family="sans-serif" font-size="14" lengthAdjust="spacing" textLength="112" x="420.8533" y="671.7142">файла клиента</text></g><g id="elem_UC2"><ellipse cx="477.0387" cy="549.6077" fill="#F1F1F1" rx="128.5387" ry="28.1077" style="stroke:#181818;stroke-width:0.5;"/><text fill="#000000" font-family="sans-serif" font-size="14" lengthAdjust="spacing" textLength="154" x="400.0387" y="544.306">проходит процедуру</text><text fill="#000000" font-family="sans-serif" font-size="14" lengthAdjust="spacing" textLength="179" x="387.5387" y="560.6028">первичной регистрации</text></g><g id="elem_UC3"><ellipse cx="872.2634" cy="32.2767" fill="#F1F1F1" rx="117.2634" ry="26.2767" style="stroke:#181818;stroke-width:0.5;"/><text fill="#000000" font-family="sans-serif" font-size="14" lengthAdjust="spacing" textLength="148" x="795.2634" y="27.8758">добавляет в клиент</text><text fill="#000000" font-family="sans-serif" font-size="14" lengthAdjust="spacing" textLength="141" x="798.7634" y="44.1727">пары логин/пароль</text></g><g id="elem_UC4"><ellipse cx="872.3711" cy="131.5709" fill="#F1F1F1" rx="149.3711" ry="37.5709" style="stroke:#181818;stroke-width:0.5;"/><text fill="#000000" font-family="sans-serif" font-size="14" lengthAdjust="spacing" textLength="148" x="798.3711" y="118.1207">добавляет в клиент</text><text fill="#000000" font-family="sans-serif" font-size="14" lengthAdjust="spacing" textLength="191" x="774.8711" y="134.4176">произвольные текстовые</text><text fill="#000000" font-family="sans-serif" font-size="14" lengthAdjust="spacing" textLength="56" x="844.3711" y="150.7144">данные</text></g><g id="elem_UC5"><ellipse cx="872.4214" cy="241.5709" fill="#F1F1F1" rx="144.4214" ry="37.5709" style="stroke:#181818;stroke-width:0.5;"/><text fill="#000000" font-family="sans-serif" font-size="14" lengthAdjust="spacing" textLength="148" x="798.4214" y="228.1207">добавляет в клиент</text><text fill="#000000" font-family="sans-serif" font-size="14" lengthAdjust="spacing" textLength="184" x="778.4214" y="244.4176">произвольные бинарные</text><text fill="#000000" font-family="sans-serif" font-size="14" lengthAdjust="spacing" textLength="56" x="844.4214" y="260.7144">данные</text></g><g id="elem_UC6"><ellipse cx="872.6829" cy="351.5849" fill="#F1F1F1" rx="116.1829" ry="37.5849" style="stroke:#181818;stroke-width:0.5;"/><text fill="#000000" font-family="sans-serif" font-size="14" lengthAdjust="spacing" textLength="148" x="796.4049" y="338.8308">добавляет в клиент</text><text fill="#000000" font-family="sans-serif" font-size="14" lengthAdjust="spacing" textLength="143" x="796.9049" y="355.1277">данные банковских</text><text fill="#000000" font-family="sans-serif" font-size="14" lengthAdjust="spacing" textLength="34" x="853.4049" y="371.4245">карт</text></g><g id="elem_UC7"><ellipse cx="872.5513" cy="461.5709" fill="#F1F1F1" rx="117.5513" ry="37.5709" style="stroke:#181818;stroke-width:0.5;"/><text fill="#000000" font-family="sans-serif" font-size="14" lengthAdjust="spacing" textLength="91" x="827.0513" y="448.1207">добавляет в</text><text fill="#000000" font-family="sans-serif" font-size="14" lengthAdjust="spacing" textLength="146" x="797.5513" y="464.4176">клиент данные OTP</text><text fill="#000000" font-family="sans-serif" font-size="14" lengthAdjust="spacing" textLength="142" x="801.5513" y="480.7144">(one time password)</text></g><g id="elem_UC8"><ellipse cx="872.7168" cy="560.5473" fill="#F1F1F1" rx="94.2168" ry="26.0473" style="stroke:#181818;stroke-width:0.5;"/><text fill="#000000" font-family="sans-serif" font-size="14" lengthAdjust="spacing" textLength="91" x="827.2168" y="555.2455">добавляет к</text><text fill="#000000" font-family="sans-serif" font-size="14" lengthAdjust="spacing" textLength="117" x="814.2168" y="571.5424">данным лейблы</text></g><g id="elem_UC9"><ellipse cx="872.6604" cy="647.5473" fill="#F1F1F1" rx="78.6604" ry="26.0473" style="stroke:#181818;stroke-width:0.5;"/><text fill="#000000" font-family="sans-serif" font-size="14" lengthAdjust="spacing" textLength="91" x="827.1604" y="642.2455">добавляет к</text><text fill="#000000" font-family="sans-serif" font-size="14" lengthAdjust="spacing" textLength="95" x="825.1604" y="658.5424">данным теги</text></g><g id="elem_UC10"><ellipse cx="118.6016" cy="481.5473" fill="#F1F1F1" rx="112.6016" ry="26.0473" style="stroke:#181818;stroke-width:0.5;"/><text fill="#000000" font-family="sans-serif" font-size="14" lengthAdjust="spacing" textLength="120" x="58.6016" y="476.2455">синхронизирует</text><text fill="#000000" font-family="sans-serif" font-size="14" lengthAdjust="spacing" textLength="143" x="47.1016" y="492.5424">данные с сервером</text></g><g id="elem_UC11"><ellipse cx="476.7951" cy="455.459" fill="#F1F1F1" rx="140.2951" ry="30.459" style="stroke:#181818;stroke-width:0.5;"/><text fill="#000000" font-family="sans-serif" font-size="14" lengthAdjust="spacing" textLength="71" x="441.2951" y="450.1573">проходит</text><text fill="#000000" font-family="sans-serif" font-size="14" lengthAdjust="spacing" textLength="209" x="372.2951" y="466.4541">процедуру аутентификации</text></g><g id="elem_UC12"><ellipse cx="118.4274" cy="394.5904" fill="#F1F1F1" rx="80.9274" ry="26.0904" style="stroke:#181818;stroke-width:0.5;"/><text fill="#000000" font-family="sans-serif" font-size="14" lengthAdjust="spacing" textLength="98" x="66.4274" y="390.1895">запрашивает</text><text fill="#000000" font-family="sans-serif" font-size="14" lengthAdjust="spacing" textLength="56" x="87.4274" y="406.4864">данные</text></g><g id="elem_UC13"><ellipse cx="118.2756" cy="307.5473" fill="#F1F1F1" rx="60.2756" ry="26.0473" style="stroke:#181818;stroke-width:0.5;"/><text fill="#000000" font-family="sans-serif" font-size="14" lengthAdjust="spacing" textLength="69" x="83.7756" y="302.2455">копирует</text><text fill="#000000" font-family="sans-serif" font-size="14" lengthAdjust="spacing" textLength="52" x="92.2756" y="318.5424">пароль</text></g><g id="elem_UC14"><ellipse cx="118.4741" cy="220.5473" fill="#F1F1F1" rx="89.9741" ry="26.0473" style="stroke:#181818;stroke-width:0.5;"/><text fill="#000000" font-family="sans-serif" font-size="14" lengthAdjust="spacing" textLength="77" x="79.9741" y="215.2455">извлекает</text><text fill="#000000" font-family="sans-serif" font-size="14" lengthAdjust="spacing" textLength="111" x="62.9741" y="231.5424">данные в файл</text></g><g id="elem_UC15"><ellipse cx="476.9386" cy="252.5473" fill="#F1F1F1" rx="86.4386" ry="26.0473" style="stroke:#181818;stroke-width:0.5;"/><text fill="#000000" font-family="sans-serif" font-size="14" lengthAdjust="spacing" textLength="92" x="430.9386" y="247.2455">отображает</text><text fill="#000000" font-family="sans-serif" font-size="14" lengthAdjust="spacing" textLength="106" x="423.9386" y="263.5424">список сессий</text></g><g id="elem_UC16"><ellipse cx="477.0807" cy="153.5709" fill="#F1F1F1" rx="100.5807" ry="37.5709" style="stroke:#181818;stroke-width:0.5;"/><text fill="#000000" font-family="sans-serif" font-size="14" lengthAdjust="spacing" textLength="60" x="447.0807" y="140.1207">удаляет</text><text fill="#000000" font-family="sans-serif" font-size="14" lengthAdjust="spacing" textLength="122" x="414.0807" y="156.4176">авторизованную</text><text fill="#000000" font-family="sans-serif" font-size="14" lengthAdjust="spacing" textLength="54" x="450.0807" y="172.7144">сессию</text></g><!--MD5=[029537e5e4461a0df5daea802c84c937]
link u to UC1--><g id="link_u_UC1"><path d="M424.92,351.39 C371.93,354.52 293.16,369.01 261,425 C227.13,483.97 227.13,519.03 261,578 C274.1,600.82 294.92,616.81 318.57,627.98 " fill="none" id="u-to-UC1" style="stroke:#181818;stroke-width:1.0;"/><polygon fill="#181818" points="323.33,630.16,316.7919,622.7943,318.7782,628.091,313.4815,630.0772,323.33,630.16" style="stroke:#181818;stroke-width:1.0;"/></g><!--MD5=[ce2247ea231441ce78fd7a3347e9db83]
link u to UC2--><g id="link_u_UC2"><path d="M424.92,351.39 C371.93,354.52 293.16,369.01 261,425 C247.5,448.51 247.5,462.49 261,486 C278.72,516.85 311.15,533.79 345.58,542.81 " fill="none" id="u-to-UC2" style="stroke:#181818;stroke-width:1.0;"/><polygon fill="#181818" points="350.67,544.09,342.9131,538.0212,345.8201,542.874,340.9674,545.781,350.67,544.09" style="stroke:#181818;stroke-width:1.0;"/></g><!--MD5=[d4dfb423357f333e95523f2f58c1f403]
link u to UC3--><g id="link_u_UC3"><path d="M529.24,349.15 C570.79,344.5 628,331.44 663,295.5 C733.41,223.2 652.38,148.59 723,76.5 C735.38,63.86 751.21,54.81 767.9,48.34 " fill="none" id="u-to-UC3" style="stroke:#181818;stroke-width:1.0;"/><polygon fill="#181818" points="772.63,46.58,762.8001,45.9685,767.9437,48.3231,765.5891,53.4666,772.63,46.58" style="stroke:#181818;stroke-width:1.0;"/></g><!--MD5=[e2d30219fa55c430fb48f1877f76d979]
link u to UC4--><g id="link_u_UC4"><path d="M529.21,346.57 C569.36,340.4 624.67,326.55 663,295.5 C705.97,260.7 681.1,222.59 723,186.5 C735.08,176.09 749.31,167.58 764.09,160.63 " fill="none" id="u-to-UC4" style="stroke:#181818;stroke-width:1.0;"/><polygon fill="#181818" points="768.7,158.53,758.8517,158.6383,764.1536,160.6108,762.181,165.9126,768.7,158.53" style="stroke:#181818;stroke-width:1.0;"/></g><!--MD5=[4450909595c331656ee543c78c27ecb9]
link u to UC5--><g id="link_u_UC5"><path d="M529.04,337.23 C589.37,320.37 691.29,291.88 768.3,270.35 " fill="none" id="u-to-UC5" style="stroke:#181818;stroke-width:1.0;"/><polygon fill="#181818" points="773.33,268.94,763.5862,267.5052,768.5138,270.2834,765.7356,275.211,773.33,268.94" style="stroke:#181818;stroke-width:1.0;"/></g><!--MD5=[a4f60d7cc07bd3bf473b475d83a9ea00]
link u to UC6--><g id="link_u_UC6"><path d="M529.04,351.5 C584.99,351.5 676.7,351.5 751.14,351.5 " fill="none" id="u-to-UC6" style="stroke:#181818;stroke-width:1.0;"/><polygon fill="#181818" points="756.47,351.5,747.47,347.5,751.47,351.5,747.47,355.5,756.47,351.5" style="stroke:#181818;stroke-width:1.0;"/></g><!--MD5=[8fd064613625ae3e5b4585df99006133]
link u to UC7--><g id="link_u_UC7"><path d="M529.04,365.77 C592.02,383.37 700.31,413.65 778.28,435.44 " fill="none" id="u-to-UC7" style="stroke:#181818;stroke-width:1.0;"/><polygon fill="#181818" points="783.37,436.86,775.7756,430.589,778.5538,435.5166,773.6262,438.2948,783.37,436.86" style="stroke:#181818;stroke-width:1.0;"/></g><!--MD5=[1816bb0a9f9709a07a31ddcf9eaeb0fc]
link u to UC8--><g id="link_u_UC8"><path d="M529.21,356.43 C569.36,362.6 624.67,376.45 663,407.5 C705.97,442.3 679.93,481.82 723,516.5 C740.62,530.69 762.7,540.3 784.4,546.82 " fill="none" id="u-to-UC8" style="stroke:#181818;stroke-width:1.0;"/><polygon fill="#181818" points="789.32,548.24,781.8,541.88,784.52,546.84,779.56,549.56,789.32,548.24" style="stroke:#181818;stroke-width:1.0;"/></g><!--MD5=[79fa62fd1f7aab472443f384f12472e5]
link u to UC9--><g id="link_u_UC9"><path d="M529.4,354.16 C570.75,359 627.61,372.17 663,407.5 C727.77,472.16 657.84,540.23 723,604.5 C741.36,622.61 766.86,633.18 791.56,639.33 " fill="none" id="u-to-UC9" style="stroke:#181818;stroke-width:1.0;"/><polygon fill="#181818" points="796.48,640.5,788.652,634.5232,791.6161,639.3413,786.798,642.3054,796.48,640.5" style="stroke:#181818;stroke-width:1.0;"/></g><!--MD5=[99e12ea4281da513faaa9cf5d0ea0190]
reverse link UC10 to u--><g id="link_UC10_u"><path d="M184.62,457.76 C199.96,451.79 216.17,445.17 231,438.5 C258.38,426.19 263.19,418.78 291,407.5 C335.16,389.59 387.25,374.32 424.88,364.27 " fill="none" id="UC10-backto-u" style="stroke:#181818;stroke-width:1.0;"/><polygon fill="#181818" points="179.89,459.59,189.7268,460.0764,184.5538,457.7874,186.8427,452.6144,179.89,459.59" style="stroke:#181818;stroke-width:1.0;"/></g><!--MD5=[d001f186c88612f8beeb5f52ede10514]
link u to UC11--><g id="link_u_UC11"><path d="M477,389.78 C477,399.67 477,409.56 477,419.45 " fill="none" id="u-to-UC11" style="stroke:#181818;stroke-width:1.0;"/><polygon fill="#181818" points="477,424.62,481.0257,415.6315,477.0143,419.62,473.0257,415.6086,477,424.62" style="stroke:#181818;stroke-width:1.0;"/></g><!--MD5=[610390686f6d047d7c7ef9a2f4cc2c44]
reverse link UC12 to u--><g id="link_UC12_u"><path d="M200,384.79 C268.91,376.48 366.03,364.76 424.8,357.68 " fill="none" id="UC12-backto-u" style="stroke:#181818;stroke-width:1.0;"/><polygon fill="#181818" points="194.67,385.43,204.0854,388.3196,199.6338,384.8292,203.1241,380.3775,194.67,385.43" style="stroke:#181818;stroke-width:1.0;"/></g><!--MD5=[9edfd3409093a0a20bf8a8c2f79fa00c]
reverse link UC13 to u--><g id="link_UC13_u"><path d="M182.09,315.22 C251.12,323.75 360.89,337.29 424.93,345.2 " fill="none" id="UC13-backto-u" style="stroke:#181818;stroke-width:1.0;"/><polygon fill="#181818" points="176.78,314.57,185.2341,319.6225,181.7438,315.1708,186.1954,311.6804,176.78,314.57" style="stroke:#181818;stroke-width:1.0;"/></g><!--MD5=[b4805bdd439001762906b88ff2f2e30f]
reverse link UC14 to u--><g id="link_UC14_u"><path d="M180.71,242.57 C197.21,248.93 214.93,256.15 231,263.5 C258.48,276.07 263.07,283.96 291,295.5 C335.04,313.7 387.14,328.94 424.81,338.9 " fill="none" id="UC14-backto-u" style="stroke:#181818;stroke-width:1.0;"/><polygon fill="#181818" points="175.63,240.62,182.6085,247.5699,180.3004,242.4053,185.465,240.0973,175.63,240.62" style="stroke:#181818;stroke-width:1.0;"/></g><!--MD5=[2f6785692e67cd014035c344f16afd64]
reverse link UC15 to u--><g id="link_UC15_u"><path d="M477,283.73 C477,293.56 477,303.39 477,313.21 " fill="none" id="UC15-backto-u" style="stroke:#181818;stroke-width:1.0;"/><polygon fill="#181818" points="477,278.59,473,287.59,477,283.59,481,287.59,477,278.59" style="stroke:#181818;stroke-width:1.0;"/></g><!--MD5=[5107f085c0df1693988998423b38cd30]
reverse link UC16 to u--><g id="link_UC16_u"><path d="M372.2,159.56 C328.83,168.21 283.48,186.86 261,226 C249.49,246.04 249.49,257.96 261,278 C293.16,333.99 371.93,348.48 424.92,351.61 " fill="none" id="UC16-backto-u" style="stroke:#181818;stroke-width:1.0;"/><polygon fill="#181818" points="377.2,158.6,367.6075,156.3675,372.2896,159.5421,369.1149,164.2242,377.2,158.6" style="stroke:#181818;stroke-width:1.0;"/></g><!--MD5=[782403450931d4ed1d5793a8319a4ab7]
@startuml usecase
left to right direction
actor Пользователь as u
usecase UC1 #palegreen;line:green as "получает информацию 
о версии и дате сборки бинарного 
файла клиента" 
usecase UC2  as "проходит процедуру 
первичной регистрации"
usecase UC3  as "добавляет в клиент 
пары логин/пароль"
usecase UC4  as "добавляет в клиент 
произвольные текстовые 
данные"
usecase UC5  as "добавляет в клиент 
произвольные бинарные 
данные"
usecase UC6  as "добавляет в клиент 
данные банковских 
карт"
usecase UC7  as "добавляет в 
клиент данные OTP 
(one time password)"
usecase UC8  as "добавляет к 
данным лейблы"
usecase UC9  as "добавляет к 
данным теги"
usecase UC10 as "синхронизирует 
данные с сервером"
usecase UC11 as "проходит 
процедуру аутентификации"
usecase UC12 as "запрашивает 
данные"
usecase UC13 as "копирует 
пароль"
usecase UC14 as "извлекает 
данные в файл"
usecase UC15 as "отображает 
список сессий"
usecase UC16 as "удаляет 
авторизованную 
сессию"
u -right-> UC1
u -right-> UC2
u -down-> UC3
u -down-> UC4
u -down-> UC5
u -down-> UC6
u -down-> UC7
u -down-> UC8
u -down-> UC9
u -up-> UC10
u -right-> UC11
u -up-> UC12
u -up-> UC13
u -up-> UC14
u -left-> UC15
u -left-> UC16
@enduml

PlantUML version 1.2022.7(Mon Aug 22 17:01:30 UTC 2022)
(GPL source distribution)
Java Runtime: OpenJDK Runtime Environment
JVM: OpenJDK 64-Bit Server VM
Default Encoding: UTF-8
Language: en
Country: null
--></g></svg>